<svg xmlns="http://www.w3.org/2000/svg" width="24" height="24" viewBox="0 0 24 24">
    <g fill="none" fill-rule="evenodd">
        <g fill="#9E9E9E">
            <path d="M12.284 2.707l.07.057 7.34 7.341c.196.196.196.512 0 .708-.173.173-.442.192-.637.057l-.07-.057L12.5 4.325l.001 16.557c0 .276-.224.5-.5.5-.245 0-.45-.177-.492-.41l-.008-.09-.001-16.557-6.486 6.488c-.174.173-.443.192-.638.057l-.07-.057c-.173-.174-.192-.443-.057-.638l.057-.07 7.341-7.34c.174-.174.443-.193.638-.058z"/>
        </g>
    </g>
</svg>
