<svg width="16" height="16" viewBox="0 0 16 16" xmlns="http://www.w3.org/2000/svg">
    <defs>
        <clipPath id="733exsitva">
            <path d="M375 0v3505H0V0h375z"/>
        </clipPath>
        <clipPath id="kod1x941gb">
            <path d="M7.425 0a8.374 8.374 0 0 1 7.313 4.635l.113.207-.113.213a8.374 8.374 0 0 1-7.313 4.628A8.372 8.372 0 0 1 .113 5.05L0 4.842l.113-.207A8.373 8.373 0 0 1 7.425 0zm0 .853a7.521 7.521 0 0 0-6.337 3.743l-.136.243.136.243a7.52 7.52 0 0 0 6.338 3.747 7.522 7.522 0 0 0 6.475-3.993A7.523 7.523 0 0 0 7.425.853zM7.394 1.92c1.678.024 3.02 1.366 2.999 3 .02 1.634-1.32 2.976-2.999 3-1.678-.025-3.02-1.366-2.999-3-.02-1.637 1.322-2.977 2.999-3zm.025.88c-1.189.018-2.139.967-2.124 2.124-.01.552.208 1.09.607 1.49.399.399.944.628 1.517.636 1.19-.018 2.14-.969 2.124-2.126.015-1.157-.935-2.106-2.124-2.124z"/>
        </clipPath>
    </defs>
    <g clip-path="url(#733exsitva)" transform="translate(-16 -813)">
        <g clip-path="url(#kod1x941gb)" transform="translate(16.607 816.2)">
            <path fill="#9E9E9E" d="M0 0h14.851v9.683H0V0z"/>
        </g>
        <path d="m16.72 821.25-.113-.208.113-.207a8.373 8.373 0 0 1 7.312-4.635 8.374 8.374 0 0 1 7.313 4.635l.113.207-.113.213a8.374 8.374 0 0 1-7.313 4.628 8.372 8.372 0 0 1-7.312-4.633zm.838-.214a7.52 7.52 0 0 0 6.475 3.993 7.522 7.522 0 0 0 6.475-3.993 7.523 7.523 0 0 0-6.476-3.983 7.521 7.521 0 0 0-6.474 3.989v-.006zm3.442.08c-.018-1.633 1.324-2.973 3-2.996 1.68.024 3.02 1.366 3 3 .02 1.634-1.32 2.976-3 3-1.677-.025-3.018-1.366-2.998-3l-.002-.005zm.9.003c-.009.557.21 1.095.609 1.494.399.4.944.629 1.517.637 1.19-.018 2.14-.969 2.124-2.126.015-1.157-.935-2.106-2.124-2.124-1.189.018-2.139.967-2.124 2.124l-.002-.005z" stroke="#9E9E9E" stroke-width=".2" fill="none" stroke-miterlimit="10"/>
    </g>
</svg>
