<svg width="24" height="24" viewBox="0 0 24 24" xmlns="http://www.w3.org/2000/svg">
    <defs>
        <clipPath id="u1zbiuj2la">
            <path d="M375 0v3505H0V0h375z"/>
        </clipPath>
        <clipPath id="3552odzbob">
            <path d="M12.099 0c.003.308.034.61.094.9a4.795 4.795 0 0 0 1.854 2.89c.818.606 1.84.967 2.945.967l.007 3.084a8.088 8.088 0 0 1-3.122-.617 7.865 7.865 0 0 1-1.775-1.015l.015 6.935a5.754 5.754 0 0 1-1.774 4.132c-.928.899-2.1 1.471-3.372 1.657a6.2 6.2 0 0 1-.912.067 6.128 6.128 0 0 1-4.284-1.724A5.757 5.757 0 0 1 .01 12.75a5.78 5.78 0 0 1 1.495-3.512 6.109 6.109 0 0 1 4.553-2c.31 0 .613.023.912.068v3.143a3.002 3.002 0 0 0-.9-.14c-1.598 0-2.888 1.281-2.866 2.85a2.793 2.793 0 0 0 1.397 2.367 2.909 2.909 0 0 0 2.369.256c1.139-.372 1.964-1.423 1.964-2.664l.004-4.642V0z"/>
        </clipPath>
    </defs>
    <g clip-path="url(#u1zbiuj2la)" transform="translate(-176 -3243)">
        <g clip-path="url(#3552odzbob)" transform="translate(179.5 3245.5)">
            <path fill="#9E9E9E" d="M0 0h17v19H0V0z"/>
        </g>
    </g>
</svg>
