<svg xmlns="http://www.w3.org/2000/svg" width="24" height="24" viewBox="0 0 24 24">
    <g fill="none" fill-rule="evenodd">
        <g fill="#9E9E9E">
            <path d="M12.352 3.5c1.505.008 7.396.066 9.025.514 1.032.284 1.846 1.119 2.121 2.179.445 1.702.495 5.042.501 5.784l.001.138v.158c-.007.741-.057 4.081-.502 5.783-.275 1.06-1.089 1.895-2.121 2.18-1.681.461-7.904.509-9.157.513h-.44c-1.253-.004-7.476-.052-9.158-.514C1.59 19.951.776 19.117.501 18.056.057 16.354.006 13.014 0 12.273v-.393c.01-.9.074-4.05.5-5.687.276-1.06 1.09-1.895 2.122-2.179 1.682-.462 7.905-.51 9.157-.514zM9.75 8.75v7.5l6-3.75-6-3.75z"/>
        </g>
    </g>
</svg>
