<svg xmlns="http://www.w3.org/2000/svg" width="24" height="24" viewBox="0 0 24 24">
    <g fill="none" fill-rule="evenodd">
        <g fill="#9E9E9E">
            <path d="M20 1.924c-.736.327-1.527.547-2.357.646.847-.507 1.498-1.312 1.805-2.27-.793.47-1.671.812-2.606.997C16.093.498 15.027 0 13.847 0 11.58 0 9.743 1.837 9.743 4.103c0 .322.037.635.107.935-3.41-.17-6.434-1.804-8.457-4.287-.354.606-.556 1.31-.556 2.063 0 1.423.724 2.68 1.826 3.416-.673-.023-1.306-.207-1.86-.513v.05c0 1.989 1.414 3.647 3.292 4.024-.344.095-.707.144-1.08.144-.266 0-.522-.026-.773-.073.522 1.63 2.037 2.816 3.833 2.85-1.405 1.1-3.174 1.755-5.096 1.755-.332 0-.658-.019-.979-.056 1.816 1.163 3.973 1.843 6.29 1.843 7.548 0 11.674-6.252 11.674-11.675 0-.177-.004-.354-.011-.53.801-.579 1.497-1.302 2.047-2.125" transform="translate(2 4)"/>
        </g>
    </g>
</svg>
