<svg xmlns="http://www.w3.org/2000/svg" width="14" height="20" viewBox="0 0 14 20">
    <g fill="none" fill-rule="evenodd">
        <g fill="#FFF">
            <g>
                <g>
                    <path d="M5.884.097c.131-.13.344-.13.476 0 .121.12.13.307.028.437L6.36.565 1.85 5 6.36 9.435c.121.12.13.307.028.437l-.028.031c-.122.12-.312.129-.444.028l-.032-.028-4.742-4.664c-.033-.033-.058-.071-.075-.113l-.014-.044-.002-.008c-.024-.098-.001-.2.06-.28l.03-.032L5.883.097z" transform="translate(-38 -6) translate(38 6) matrix(-1 0 0 1 14 5)"/>
                </g>
            </g>
        </g>
    </g>
</svg>
