<svg xmlns="http://www.w3.org/2000/svg" width="8" height="8" viewBox="0 0 8 8">
    <g fill="none" fill-rule="evenodd">
        <g fill="#FC3DAB">
            <path d="M4.474 4.061l.036.038L6.784 6.61c.305.336.284.86-.045 1.17-.316.299-.803.29-1.11-.009l-.037-.037-1.677-1.852-1.673 1.851c-.293.324-.779.356-1.108.082l-.04-.034c-.316-.298-.348-.794-.08-1.13l.034-.04L3.318 4.1c.309-.342.83-.355 1.156-.039zm0-3.833l.036.038 2.274 2.51c.305.337.284.86-.045 1.17-.316.3-.803.292-1.11-.008l-.037-.037-1.677-1.853L2.242 3.9c-.293.323-.779.355-1.108.082l-.04-.035c-.316-.298-.348-.793-.08-1.13l.034-.04 2.27-2.51c.309-.342.83-.355 1.156-.039z"/>
        </g>
    </g>
</svg>
