<svg xmlns="http://www.w3.org/2000/svg" width="24" height="24" viewBox="0 0 24 24">
    <g fill="none" fill-rule="evenodd">
        <g fill="#363636">
            <path d="M16.18.827C17.27.114 18.605.06 19.752.68c1.355.733 2.164 2.218 2.164 3.972v.077h.853c.678 0 1.23.55 1.23 1.226v3.417c0 .67-.542 1.218-1.213 1.227V22.6c0 .77-.628 1.398-1.401 1.398H2.614c-.773 0-1.401-.627-1.401-1.398V10.598C.543 10.588 0 10.042 0 9.37V5.954c0-.676.552-1.226 1.23-1.226h1.046V4.65c0-1.754.809-3.24 2.164-3.972C5.588.059 6.924.114 8.014.827l.045.033 2.671 2.106c.269-.162.575-.248.886-.248h.961c.311 0 .617.086.886.248L16.134.86l.045-.033zm-7.554 9.77H2.47v12.004c0 .076.066.14.144.14h18.772c.078 0 .144-.064.144-.14V10.598h-5.782v3.775c0 .237-.131.452-.343.56-.206.105-.466.085-.654-.05l-2.564-1.856-2.564 1.855c-.192.14-.443.16-.655.05-.211-.107-.342-.322-.342-.56v-3.774zm5.864-4.88H9.883v7.424l1.935-1.4c.22-.16.517-.16.737 0l1.935 1.4V5.716zm1.258.269V9.34h6.985l.01-3.349-6.995-.005zm-7.122 0h-7.36l-.008 3.348 7.368.006V5.985zm10.528-4.2c-.736-.4-1.562-.37-2.264.08l-2.665 2.1c.043.15.064.305.064.458v.035h.83c.206 0 .397.1.515.269h5.026V4.65c0-1.285-.563-2.356-1.506-2.866zm-11.852.078c-.7-.448-1.526-.478-2.264-.079-.942.51-1.505 1.581-1.505 2.866v.077H8.74c.118-.17.309-.27.514-.27h.65v-.034c0-.153.022-.307.064-.457zm5.275 2.111h-.96c-.251 0-.455.202-.455.45v.034h1.87v-.035c0-.247-.205-.449-.455-.449z"/>
        </g>
    </g>
</svg>
