<svg xmlns="http://www.w3.org/2000/svg" width="24" height="24" viewBox="0 0 24 24">
    <g fill="none" fill-rule="evenodd">
        <g fill="#363636">
            <path d="M12 0c6.617 0 12 5.383 12 12s-5.383 12-12 12S0 18.617 0 12 5.383 0 12 0zm0 1.271c-5.916 0-10.729 4.813-10.729 10.73 0 5.915 4.813 10.728 10.73 10.728 5.915 0 10.728-4.813 10.728-10.729 0-5.916-4.813-10.729-10.729-10.729zM10.39 7.145c2.327-.813 4.948.12 6.233 2.22.183.3.089.691-.21.874-.3.183-.692.089-.874-.21-.975-1.593-2.965-2.302-4.73-1.684-1.006.352-1.816 1.076-2.28 2.04-.465.963-.527 2.048-.175 3.055.353 1.008 1.077 1.82 2.039 2.283.962.464 2.048.525 3.055.172.9-.314 1.657-.939 2.136-1.76.085-.147.223-.251.387-.295.164-.043.335-.02.482.066.147.085.251.223.295.387.043.164.02.335-.066.482-.63 1.082-1.63 1.907-2.814 2.32-.565.198-1.152.298-1.743.298-.792 0-1.56-.176-2.284-.525-1.268-.611-2.222-1.68-2.687-3.009-.959-2.743.493-5.755 3.236-6.714z"/>
        </g>
    </g>
</svg>
