<svg xmlns="http://www.w3.org/2000/svg" width="24" height="24" viewBox="0 0 24 24">
    <g fill="none" fill-rule="evenodd">
        <g fill="#363636">
            <path d="M15.98 12.33c4.406 0 7.99 3.584 7.99 7.989v1.534c0 .327-.266.593-.593.593H.593c-.327 0-.593-.266-.593-.593v-1.534c0-4.405 3.584-7.99 7.99-7.99zm0 1.186H7.99c-3.752 0-6.804 3.052-6.804 6.803v.94h21.598v-.94c0-3.751-3.052-6.803-6.803-6.803zM11.986.639c2.704 0 4.903 2.2 4.903 4.904 0 2.703-2.2 4.903-4.903 4.903-2.704 0-4.903-2.2-4.903-4.903 0-2.704 2.2-4.904 4.903-4.904zm0 1.186c-2.05 0-3.717 1.668-3.717 3.718S9.935 9.26 11.985 9.26s3.717-1.668 3.717-3.717c0-2.05-1.667-3.718-3.717-3.718z"/>
        </g>
    </g>
</svg>
