<svg xmlns="http://www.w3.org/2000/svg" width="24" height="24" viewBox="0 0 24 24">
    <g fill="none" fill-rule="evenodd">
        <g fill="#363636">
            <path d="M10.599 19.874c-5.045 0-9.148-4.13-9.148-9.207 0-5.077 4.103-9.207 9.148-9.207 5.044 0 9.147 4.13 9.147 9.207 0 5.077-4.103 9.207-9.147 9.207m13.189 2.877l-5.13-5.161c1.582-1.864 2.54-4.28 2.54-6.923C21.197 4.776 16.451 0 10.597 0 4.746 0 0 4.776 0 10.667s4.745 10.667 10.599 10.667c2.705 0 5.172-1.022 7.045-2.7l5.118 5.15c.141.142.327.214.513.214.185 0 .37-.072.513-.214.283-.285.283-.747 0-1.033"/>
        </g>
    </g>
</svg>
