<svg xmlns="http://www.w3.org/2000/svg" width="24" height="32" viewBox="0 0 24 32">
    <g fill="none" fill-rule="evenodd">
        <g fill="#FC3DAB">
            <path d="M15.866 15.383c-.48.54-1.165.859-1.89.882-.726-.023-1.41-.342-1.89-.882.48-.54 1.164-.859 1.89-.882.725.024 1.409.342 1.89.882m5.955 10.99c-.669.688-1.497 1.204-2.413 1.5-1.42.337-2.878.49-4.338.457H8.363V3.673h4.471c1.379-.037 2.756.09 4.103.382.784.18 1.512.546 2.122 1.067.63.579 1.126 1.288 1.453 2.076.368.806.561 1.68.566 2.566.02 1.46-.618 2.852-1.74 3.797l-1.16 1.043c-.907-1.447-2.486-2.345-4.202-2.39-1.79.05-3.424 1.016-4.32 2.553l-.395.616.395.616c.895 1.538 2.53 2.505 4.32 2.554 1.759-.047 3.37-.986 4.271-2.487l1.735.588c1.091.35 2.03 1.056 2.665 2.004.684 1 1.035 2.19 1.002 3.398.036 1.632-.629 3.201-1.828 4.317m3.87-9.784c-.596-.879-1.348-1.642-2.22-2.25.864-1.37 1.314-2.959 1.293-4.575-.006-1.389-.303-2.761-.872-4.03-.54-1.268-1.347-2.407-2.369-3.338-1.05-.912-2.306-1.56-3.662-1.89-1.65-.374-3.34-.542-5.033-.5H4.667v31.99h10.398c1.803.038 3.603-.163 5.351-.599l.06-.017c1.488-.471 2.839-1.295 3.934-2.401 1.906-1.802 2.965-4.313 2.922-6.925.035-1.946-.539-3.855-1.642-5.465" transform="translate(-4)"/>
        </g>
    </g>
</svg>
